<?xml version="1.2" encoding="UTF-8"?>
<svg id="_Слой_3" data-name="Слой_3" xmlns="http://www.w3.org/2000/svg" xmlns:xlink="http://www.w3.org/1999/xlink" version="1.1" viewBox="0 0 2000 2000">
  <!-- Generator: Adobe Illustrator 29.1.0, SVG Export Plug-In . SVG Version: 2.1.0 Build 142)  -->
  <defs>
    <style>
      .st0 {
        stroke-width: 19px;
      }

      .st0, .st1 {
        fill: none;
        stroke: #00b18f;
        stroke-miterlimit: 10;
      }

      .st1 {
        stroke-width: 16px;
      }

      .st2 {
        fill: #e47542;
      }

      .st3 {
        fill: #6377ac;
      }

      .st4 {
        opacity: .63;
      }

      .st4, .st5 {
        fill: #fff;
      }

      .st6 {
        fill: #8860a8;
      }

      .st7 {
        fill: #2b826c;
      }

      .st8 {
        fill: #fa9147;
      }

      .st9 {
        fill: #00b89d;
      }

      .st10 {
        clip-path: url(#clippath-1);
      }

      .st11 {
        clip-path: url(#clippath-3);
      }

      .st12 {
        clip-path: url(#clippath-2);
      }

      .st13 {
        fill: #cc5365;
      }

      .st14 {
        fill: #19735f;
      }

      .st15 {
        fill: #00b18f;
      }

      .st16 {
        fill: #944448;
        opacity: .64;
      }

      .st17 {
        clip-path: url(#clippath);
      }
    </style>
    <clipPath id="clippath">
      <path class="st13" d="M603.39,1035.6c63.86-40.91,191.09-110.13,365.85-125.96,229.16-20.76,402.17,62.74,468.88,99.48-7.78,58.81-15.55,117.62-23.33,176.42-259.63,18.5-519.27,37.01-778.9,55.51-10.83-68.48-21.66-136.97-32.5-205.45Z"/>
    </clipPath>
    <clipPath id="clippath-1">
      <path class="st8" d="M631.81,1205.56c65.73-37.05,165.76-82.48,294.29-102.27,228.43-35.17,410.99,31.58,492.23,67.4-20.04,136.42-40.09,272.83-60.13,409.25-223.01,5.29-446.01,10.58-669.02,15.87-19.12-130.08-38.25-260.17-57.37-390.25Z"/>
    </clipPath>
    <clipPath id="clippath-2">
      <circle class="st14" cx="1242.48" cy="451.37" r="91.56"/>
    </clipPath>
    <clipPath id="clippath-3">
      <circle class="st14" cx="768.88" cy="463.71" r="91.56"/>
    </clipPath>
  </defs>
  <path class="st5" d="M1013.71,277c-224.01-2.18-394.35,66.09-480.78,107.91-12.54,4.37-38.87,15.52-60.26,42.08-12.45,15.46-18.99,30.87-22.51,41.69,7.67,23.86,25.36,67.1,66.22,103.68,40.28,36.06,82.26,47.02,121.26,57.21,29.15,7.62,91.98,23.33,170.35,9.32,112.92-20.17,184.15-88.81,209.76-116.19,79.33,35.69,158.67,71.38,238,107.07,25.03,3.78,60.04,6.04,100.66-1.05,70.63-12.33,119.91-46.23,144.4-65.91,31.72-28.72,44.58-72.19,32.89-111.38-14.48-48.51-59.52-66.74-65.12-68.9-85.36-40.78-245.35-103.51-454.88-105.55Z"/>
  <path class="st15" d="M853.68,973.03c-39.56-102.34-79.12-204.68-118.68-307.03,45.33-10.33,90.67-20.67,136-31,11.95,108.54,23.9,217.09,35.85,325.63-17.72,4.13-35.45,8.27-53.17,12.4Z"/>
  <path class="st15" d="M1182,617l-23.76,315.83c18.56,5.48,37.13,10.96,55.69,16.44l97.07-306.28c-43-8.67-86-17.33-129-26Z"/>
  <g>
    <path class="st13" d="M603.39,1035.6c63.86-40.91,191.09-110.13,365.85-125.96,229.16-20.76,402.17,62.74,468.88,99.48-7.78,58.81-15.55,117.62-23.33,176.42-259.63,18.5-519.27,37.01-778.9,55.51-10.83-68.48-21.66-136.97-32.5-205.45Z"/>
    <g class="st17">
      <path class="st16" d="M596.9,1194.08c45.17-22.68,90.33-45.36,135.5-68.04-11.26-62.31-22.52-124.62-33.78-186.93,6.65-1.55,13.29-3.1,19.94-4.65,13.48,61.79,26.95,123.59,40.43,185.38,58.03-21.49,136.82-43.7,231.9-51.28,144.64-11.53,262.55,15.91,335.74,39.43,7.3-56.83,14.61-113.66,21.91-170.49,6.93,1.65,13.85,3.31,20.78,4.96-7.3,56.83-14.61,113.66-21.91,170.49,36.18,14.92,72.36,29.84,108.54,44.76-1.01,21.72-2.01,43.45-3.02,65.17-319.96,92.06-784.43,200.79-856.53,65.2-11.63-21.88-14.04-51.97.5-94.02Z"/>
    </g>
  </g>
  <path class="st3" d="M371.3,884.95"/>
  <path class="st6" d="M555.42,908.04"/>
  <path class="st9" d="M1954.72,1355.34"/>
  <g>
    <path class="st8" d="M631.81,1205.56c65.73-37.05,165.76-82.48,294.29-102.27,228.43-35.17,410.99,31.58,492.23,67.4-20.04,136.42-40.09,272.83-60.13,409.25-223.01,5.29-446.01,10.58-669.02,15.87-19.12-130.08-38.25-260.17-57.37-390.25Z"/>
    <g class="st10">
      <path class="st2" d="M1446.78,1130.43c-42.08,74.61-123.4,195.23-265.61,297.39-212.78,152.85-432.03,171.07-521.55,173.48,247.06,29.74,494.12,59.49,741.18,89.23l45.97-560.11Z"/>
    </g>
  </g>
  <path class="st14" d="M676.35,1556.96c2.93,110.66,5.86,221.32,8.79,331.97,63.44-.26,126.88-.52,190.32-.78,1.7-108.31,3.39-216.62,5.09-324.93-15.12-48.13-60.15-79.94-108.23-77.72-42.47,1.96-80.46,30.17-95.97,71.45Z"/>
  <path class="st14" d="M1165.45,1559.99c3.29,110.65,6.58,221.3,9.87,331.94,63.44-.47,126.88-.93,190.32-1.4,1.34-108.32,2.68-216.63,4.03-324.95-15.27-48.08-60.41-79.74-108.48-77.36-42.47,2.1-80.37,30.43-95.74,71.76Z"/>
  <g>
    <circle class="st14" cx="1242.48" cy="451.37" r="91.56"/>
    <g class="st12">
      <path class="st7" d="M1268.64,289.11c45.18,52.36,50.91,126.8,15.6,181.04-29.27,44.98-82.81,70.01-138.57,65.5-7.99,34.11-15.97,68.23-23.96,102.34,82.06-15.28,164.13-30.57,246.19-45.85,7.01-25.2,18.07-84.84-3.63-157.62-24.31-81.54-75.55-129.59-95.64-145.4Z"/>
    </g>
  </g>
  <g>
    <circle class="st14" cx="768.88" cy="463.71" r="91.56"/>
    <g class="st11">
      <path class="st7" d="M795.03,301.45c45.18,52.36,50.91,126.8,15.6,181.04-29.27,44.98-82.81,70.01-138.57,65.5-7.99,34.11-15.97,68.23-23.96,102.34,82.06-15.28,164.13-30.57,246.19-45.85,7.01-25.2,18.07-84.84-3.63-157.62-24.31-81.54-75.55-129.59-95.64-145.4Z"/>
    </g>
  </g>
  <path class="st0" d="M438.99,462.88c13.15-117.15,342.4-185.07,582.91-180.79,223.51,3.98,517.83,72.96,530.45,183.23,7.07,61.74-75.67,123.42-124.67,147.5-88.61,43.55-175.83,17.71-232.43.95-85.9-25.45-145.88-71.93-180.6-104.34,2.42-75.78,4.83-151.56,7.25-227.33-2.42,75.78-4.83,151.56-7.25,227.33-67.9,101.56-184.41,158.62-303.8,148.63-139.18-11.65-280.94-114.3-271.86-195.18Z"/>
  <path class="st1" d="M1005.88,519.89"/>
  <path class="st15" d="M1011,291c1.15,9.61,16.2,146.45-35,234-13.69,23.41-30.27,51.76-62,73-12.94,8.66-46.08,27.97-46.05,28.03,0,0,.04-.02.05-.03.98-.65,48.43-29.69,116-71,9.82-15.11,22.68-38.42,31-69,8.53-31.37,8.4-56.1,8-87-.35-26.95-2.81-64.08-12-108Z"/>
  <path class="st15" d="M1015,505c13.87-177.61,16.3-212.98,16-213-.72-.06-28.66,127.81,36,226,21.43,32.53,48.28,54.39,71,69,22,9.67,44,19.33,66,29-37.29-12.73-74.57-25.45-111.86-38.18-16.54-13.45-33.74-28.66-51.14-45.82-9.23-9.1-17.89-18.12-26-27Z"/>
  <ellipse class="st4" cx="816.35" cy="446.36" rx="12.21" ry="21.36" transform="translate(192.49 1136.63) rotate(-76.56)"/>
  <ellipse class="st4" cx="1288.56" cy="439.95" rx="12.21" ry="21.36" transform="translate(561.2 1590.99) rotate(-76.56)"/>
  <path class="st15" d="M1008,289c-.67,50.67-1.33,101.33-2,152,2.33-2,4.67-4,7-6l3-147c-2.67.33-5.33.67-8,1Z"/>
</svg>